<?xml version="1.0" encoding="utf-8"?>
<!-- Generator: Adobe Illustrator 19.0.0, SVG Export Plug-In . SVG Version: 6.00 Build 0)  -->
<svg version="1.1" id="圖層_1" xmlns="http://www.w3.org/2000/svg" xmlns:xlink="http://www.w3.org/1999/xlink" x="0px" y="0px"
	 viewBox="-467 269 24 24" style="enable-background:new -467 269 24 24;" xml:space="preserve">
<style type="text/css">
	.st0{fill:#FF4384;}
</style>
<path class="st0" d="M-455,271c-5.5,0-10,4.5-10,10s4.5,10,10,10s10-4.5,10-10S-449.5,271-455,271z M-457,285c-0.5,0-1-0.5-1-1v-6
	c0-0.5,0.5-1,1-1s1,0.5,1,1v6C-456,284.5-456.5,285-457,285z M-453,285c-0.5,0-1-0.5-1-1v-6c0-0.5,0.5-1,1-1s1,0.5,1,1v6
	C-452,284.5-452.5,285-453,285z"/>
</svg>
