<?xml version="1.0" encoding="utf-8"?>
<!-- Generator: Adobe Illustrator 19.0.0, SVG Export Plug-In . SVG Version: 6.00 Build 0)  -->
<svg version="1.1" id="圖層_1" xmlns="http://www.w3.org/2000/svg" xmlns:xlink="http://www.w3.org/1999/xlink" x="0px" y="0px"
	 viewBox="0 0 410 408" style="enable-background:new 0 0 410 408;" xml:space="preserve">
<style type="text/css">
	.st0{fill:#7785C1;}
	.st1{fill:#101837;}
</style>
<path class="st0" d="M397,207.7c-0.1,106.1-86.5,192.3-192.7,192.3C98.3,399.9,12,313.4,12.1,207.3C12.1,101.3,98.6,15,204.7,15.1
	C310.8,15.2,397.1,101.6,397,207.7z"/>
<path class="st1" d="M240.6,169.2c-5.2,18.9-10.4,37.9-15.6,56.8c-3.7,13.6-7.6,27.1-10.9,40.7c-1.2,4.9-3,6.6-8.2,6.6
	c-18.7-0.2-18.6,0-23.5-18.1c-7.2-26.9-14.5-53.8-21.7-80.6c-0.5-1.7-1.1-3.4-2.7-5.1c-0.1,1.8-0.2,3.5-0.2,5.3
	c0,24.5-0.1,49.1,0.1,73.6c0,2.4-1.7,6,3.4,6.2c12.4,0.4,4.2,9.6,5.6,14.5c1.8,6.4-4.4,4-7.3,4.1c-11.2,0.3-22.4-0.1-33.7,0.2
	c-4.6,0.1-6-1.5-5.6-5.8c0.6-5.8-2.7-13.1,7-14.9c2.7-0.5,2.4-4.3,2.4-6.9c0-25.3,0-50.6,0-75.9c0-3.2-0.4-6.1-3.5-8.1
	c-1.9-1.2-5.5,0.6-5.7-2.7c-0.4-4.9-0.2-9.9,0-14.9c0.1-2.1,2.1-2,3.6-2c18.3,0,36.5,0.1,54.8-0.1c4.9-0.1,4.5,3.6,5.2,6.2
	c6.6,24.3,13.1,48.7,19.8,73.6c3.2-1.9,2.9-5.1,3.5-7.5c6-21.8,12-43.6,17.6-65.6c1.3-5.2,3.5-6.9,8.9-6.7
	c16.4,0.4,32.9,0.3,49.3,0.1c4.4-0.1,6.2,1.1,5.7,5.7c-0.3,3.1,0,6.3-0.1,9.4c0,1.4,0.5,3.5-1.8,3.6c-8.5,0.7-7.6,6.9-7.6,12.7
	c0,23.2,0,46.4,0,69.7c0,5.4-0.3,10.9,7.2,11.5c2.3,0.2,2.2,1.7,2.2,3.3c0,3.1-0.3,6.3,0.1,9.4c0.6,4.9-1.3,6.2-6.1,6.1
	c-14.6-0.3-29.2-0.3-43.8,0c-5.2,0.1-7.1-1.3-6.4-6.5c0.4-2.8,0.1-5.7,0-8.6c-0.1-2.4,0.2-4.3,3.3-3.8c5.6,1,6.2-1.9,6.2-6.6
	c-0.2-26.1-0.1-52.2-0.1-78.3C241.5,169.4,241.1,169.3,240.6,169.2z"/>
</svg>
