<?xml version="1.0"?>
<svg xmlns="http://www.w3.org/2000/svg" xmlns:xlink="http://www.w3.org/1999/xlink" version="1.1" id="Capa_1" x="0px" y="0px" viewBox="0 0 512 512" style="enable-background:new 0 0 512 512;" xml:space="preserve" width="512px" height="512px" class=""><g><g>
	<g>
		<path style="fill:#DD46F0" d="M229.517,2.207h52.966c9.751,0,17.655,7.904,17.655,17.655v17.655h-88.276V19.862    C211.862,10.111,219.767,2.207,229.517,2.207z" data-original="#CC4B4C" class="" data-old_color="#CC4B4C"/>
		<path style="fill:#DD46F0" d="M70.621,2.207h17.655c9.751,0,17.655,7.904,17.655,17.655v17.655H52.966V19.862    C52.966,10.111,60.87,2.207,70.621,2.207z" data-original="#CC4B4C" class="" data-old_color="#CC4B4C"/>
		<path style="fill:#DD46F0" d="M423.724,2.207h17.655c9.751,0,17.655,7.904,17.655,17.655v17.655h-52.966V19.862    C406.069,10.111,413.973,2.207,423.724,2.207z" data-original="#CC4B4C" class="" data-old_color="#CC4B4C"/>
	</g>
	<path style="fill:#7D18E9" d="M494.345,50.759v220.69h-35.31V68.414H52.966v203.034h-35.31V50.759   c0.028-9.739,7.916-17.627,17.655-17.655H476.69C486.428,33.132,494.316,41.02,494.345,50.759z" data-original="#802F34" class="" data-old_color="#802F34"/>
	<path style="fill:#2DE0C7" d="M315.41,258.207l39.724-47.139l0.002-0.044c21.767,9.49,47.184,3.541,62.478-14.624   c8.505-10.008,12.982-22.824,12.557-35.951l-36.053,20.756c-7.364,4.231-16.763,1.694-20.998-5.667l-8.876-15.407   c-4.194-7.369-1.664-16.74,5.667-20.998l37.255-21.347c-18.477-12.88-43.035-12.836-61.464,0.112   c-18.43,12.947-26.799,36.035-20.947,57.785l0.013-0.012l-69.561,82.538H315.41z" data-original="#547580" class="" data-old_color="#547580"/>
	<path style="fill:#E8F94B" d="M219.277,258.207l-61.352-98.163c-6.686-10.691-18.568-17.004-31.17-16.559   c-12.602,0.445-24.01,7.579-29.926,18.714c-5.916,11.136-5.442,24.582,1.244,35.274l37.959,60.734H219.277z" data-original="#F3D55B" class="" data-old_color="#F3D55B"/>
	<path style="fill:#B19046" d="M177.707,267.034c-3.046,0.006-5.879-1.562-7.491-4.147l-38.664-61.793   c-1.684-2.674-1.81-6.044-0.331-8.836c1.479-2.792,4.338-4.581,7.496-4.689c3.158-0.109,6.133,1.479,7.801,4.163l38.664,61.793   c1.701,2.72,1.792,6.148,0.239,8.954S180.915,267.03,177.707,267.034L177.707,267.034z" data-original="#B19046" class="active-path" data-old_color="#B19046"/>
	<path style="fill:#DD46F0" d="M17.655,253.793h476.69c9.751,0,17.655,7.904,17.655,17.655v220.69   c0,9.751-7.905,17.655-17.655,17.655H17.655C7.904,509.793,0,501.889,0,492.138v-220.69C0,261.698,7.904,253.793,17.655,253.793z" data-original="#CC4B4C" class="" data-old_color="#CC4B4C"/>
	<rect x="52.966" y="315.586" style="fill:#BDC3C7" width="52.966" height="35.31" data-original="#BDC3C7" class=""/>
	<g>
		<rect x="52.966" y="253.793" style="fill:#7F8C8D" width="52.966" height="61.793" data-original="#7F8C8D" class="" data-old_color="#7F8C8D"/>
		<path style="fill:#7F8C8D" d="M105.931,350.897v44.138c-0.029,9.739-7.916,17.627-17.655,17.655H70.621    c-9.739-0.029-17.627-7.916-17.655-17.655v-44.138H105.931z" data-original="#7F8C8D" class="" data-old_color="#7F8C8D"/>
		<rect x="406.069" y="253.793" style="fill:#7F8C8D" width="52.966" height="61.793" data-original="#7F8C8D" class="" data-old_color="#7F8C8D"/>
		<path style="fill:#7F8C8D" d="M459.034,350.897v44.138c-0.029,9.739-7.916,17.627-17.655,17.655h-17.655    c-9.739-0.029-17.626-7.916-17.655-17.655v-44.138H459.034z" data-original="#7F8C8D" class="" data-old_color="#7F8C8D"/>
	</g>
	<rect x="406.069" y="315.586" style="fill:#BDC3C7" width="52.966" height="35.31" data-original="#BDC3C7" class=""/>
	<path style="fill:#7F8C8D" d="M211.862,253.793h88.276v79.448c0,9.751-7.905,17.655-17.655,17.655h-52.966   c-9.751,0-17.655-7.904-17.655-17.655V253.793z" data-original="#7F8C8D" class="" data-old_color="#7F8C8D"/>
</g></g> </svg>
